<?xml version="1.0" standalone="no"?>
<!DOCTYPE svg PUBLIC "-//W3C//DTD SVG 20010904//EN"
 "http://www.w3.org/TR/2001/REC-SVG-20010904/DTD/svg10.dtd">
<svg version="1.0" xmlns="http://www.w3.org/2000/svg"
 width="687.000000pt" height="1280.000000pt" viewBox="0 0 687.000000 1280.000000"
 preserveAspectRatio="xMidYMid meet">
<metadata>
Created by potrace 1.15, written by Peter Selinger 2001-2017
</metadata>
<g transform="translate(0.000000,1280.000000) scale(0.100000,-0.100000)"
fill="#d3ae5c" stroke="none">
<path d="M3381 12677 c-82 -252 -228 -795 -290 -1077 -41 -190 -68 -423 -111
-955 -44 -561 -67 -958 -79 -1380 -16 -516 -19 -586 -38 -747 l-17 -148 -238
0 -238 0 0 -32 c0 -18 -11 -208 -25 -423 -14 -214 -25 -406 -25 -425 0 -27
-74 -177 -306 -620 -584 -1117 -877 -1633 -1307 -2305 -403 -629 -588 -934
-674 -1110 -34 -69 -35 -72 -29 -165 14 -240 161 -845 225 -929 19 -24 19 -25
47 -6 39 24 1200 1186 1794 1795 266 272 486 496 490 498 4 2 8 -152 9 -342
l2 -344 -720 -1154 -721 -1155 1 -189 c1 -221 11 -360 28 -377 9 -9 39 -5 134
21 314 84 1000 254 1161 287 139 29 183 35 201 27 36 -17 77 -96 111 -217 38
-131 14 -120 277 -129 100 -4 198 -9 218 -12 36 -5 36 -6 43 -62 3 -31 12
-112 20 -178 8 -67 24 -229 36 -360 22 -245 42 -403 59 -445 l9 -24 10 25 c15
39 30 148 52 386 24 265 35 369 56 536 l17 128 224 0 c226 0 278 7 298 40 4 7
20 64 36 127 34 138 55 185 89 194 14 3 66 -2 115 -13 118 -24 954 -234 1167
-292 91 -25 175 -46 187 -46 34 0 41 56 41 333 l0 257 -715 1144 -715 1144 2
347 3 347 420 -428 c1385 -1415 1862 -1890 1889 -1881 24 8 68 127 141 381 79
277 119 469 119 576 1 92 -1 98 -41 182 -67 140 -171 308 -620 998 -445 685
-740 1204 -1371 2411 l-290 555 -29 460 -28 459 -238 3 c-179 2 -237 5 -237
15 0 6 -7 68 -15 137 -19 159 -35 470 -35 671 0 454 -107 1907 -166 2269 -42
253 -331 1315 -364 1335 -5 3 -27 -50 -49 -118z"/>
</g>
</svg>
