<?xml version="1.0" encoding="utf-8"?>
<!DOCTYPE svg PUBLIC "-//W3C//DTD SVG 1.1//EN" "http://www.w3.org/Graphics/SVG/1.1/DTD/svg11.dtd">
<svg version="1.1" id="Layer_1" xmlns="http://www.w3.org/2000/svg" xmlns:xlink="http://www.w3.org/1999/xlink" x="0px" y="0px"
	 viewBox="0 0 2603.007 841.165" enable-background="new 0 0 2603.007 841.165" xml:space="preserve">
<path  d="M21.503,633.555l46.644-5.125l47.075-4.401c0,0,97.696-54.384,331.934-104.726c0,0,7.723-2.833,13.988-10.091
	l29.45-7.828l16.369,3.047c0,0,6.323,1.235,14.966-4.498c0,0,81.69-60.195,163.556-92.267s229.953-16.131,430.356,33.357
	c0,0,364.708,32.985,416.676,23.221c0,0-3.265-2.026,1.923-4.673s32.031-12.549,32.031-12.549l0.386,5.259l5.273-0.198
	c0,0-0.657-6.372,3.1-6.648c3.756-0.276,5.96,1.451,6.452,5.569l38.518-2.64l-0.497-6.762l5.823-0.428l0.497,6.762l74.086-4.307
	l0.038-11.297c0,0,18.195-6.812,16.835-2.18c-1.359,4.632-10.24,32.854-10.24,32.854l115.349-18.175l3.699-8.769
	c0,0,13.363-0.604,18.779,3.72l131.949-28.951l156.045-274.397l-23.644-0.53c0,0-4.541-2.688-0.963-5.406
	c1.544-1.173,31.239,1.105,31.239,1.105l102.203-8.02l72.332-2.479l9.063-10.296l9.781-0.529l13.243,13.19l9.781-0.529
	l9.218-13.329l1.466,1.97l-6.511,11.62l83.78-0.865l1.743,26.309l-15.764,1.346l-150.325,321.3l7.507-0.25
	c3.646-0.122,6.692,2.755,6.779,6.402l0.838,35.226l-5.447,0.4l0.45,3.555l4.132-0.303l0.69,9.391l-13.46-0.711l-0.088,29.654
	c0,0-51.884,8.342-145.115-6.339l0.864,9.19l77.369,6.971c0,0,31.964,1.896,45.906,7.187c5.378,2.041,10.777,4.022,16.282,5.689
	l383.922,114.504l9.446,0.062l2.516,36.828l32.554,1.008l24.819-23.567l-41.83,3.827c0,0,4.867,58.56-2.443,67.028
	l-33.083,9.794l-4.41,22.229l4.019,3.293l19.791-0.509l-0.155,3.033l-25.279,0.346l-2.927,19.288c0,0-0.6,2.121,2.419,2.088
	c3.019-0.033,21.014,0.723,21.014,0.723l-0.21,2.281l-24.729,0.116l-34.141,10.816c0,0-111.084,1.926-124.21,0.623
	c-13.125-1.302-36.773-17.316-36.773-17.316l-87.585,10.775l-6.334,6.319l-0.991-5.781l-23.506,1.348
	c0,0-28.766,14.576-98.2,10.233l0.51,40.374l-11.847,0.681l1.331,28.417l-176.577,35.816L975.932,794.605l-615.826,17.652
	c0,0-242.772,16.724-380.122-7.005c-3.232-0.558-5.749-3.093-6.292-6.328c-1.475-8.793-4.044-27.127-3.525-45.654
	c0.313-11.164-27.765-28.364-40.377-27.816c0,0,5.641-10.612,5.744-19.494c0,0-340.405,18.954-345.871,16.523l0.869,11.833
	l-19.158,1.407l-0.855-11.645c0,0-204.157,12.537-306.408-16.966l-46.155,1.501L21.503,633.555z"/>
</svg>

