<?xml version="1.0" standalone="no"?>
<!DOCTYPE svg PUBLIC "-//W3C//DTD SVG 20010904//EN"
 "http://www.w3.org/TR/2001/REC-SVG-20010904/DTD/svg10.dtd">
<svg version="1.0" xmlns="http://www.w3.org/2000/svg"
 width="1280.000000pt" height="640.000000pt" viewBox="0 0 1280.000000 640.000000"
 preserveAspectRatio="xMidYMid meet">
<metadata>
Created by potrace 1.15, written by Peter Selinger 2001-2017
</metadata>
<g transform="translate(0.000000,640.000000) scale(0.100000,-0.100000)"
fill="#000000" stroke="none">
<path d="M5992 4378 c-1 -204 -6 -318 -12 -318 -6 0 -10 -95 -10 -265 0 -229
-2 -265 -15 -265 -8 0 -15 -4 -15 -10 0 -5 -7 -10 -15 -10 -10 0 -15 10 -15
30 0 28 -3 30 -35 30 l-35 0 0 204 c0 195 1 204 20 209 16 4 20 14 20 51 0 25
-4 46 -10 46 -5 0 -10 20 -10 44 0 61 -8 76 -40 76 -38 0 -60 -29 -60 -78 0
-23 -4 -42 -10 -42 -5 0 -10 -15 -10 -33 0 -33 24 -67 48 -67 9 0 12 -55 12
-205 l0 -205 -34 0 c-25 0 -35 -5 -39 -20 -5 -19 -14 -20 -171 -20 l-166 0 0
315 c0 273 2 315 15 315 10 0 15 10 15 30 0 19 -5 30 -14 30 -9 0 -16 12 -18
27 -2 17 -10 29 -20 31 -17 3 -18 -20 -18 -373 l0 -376 -147 5 c-82 2 -168 7
-191 11 -28 5 -48 3 -55 -4 -17 -17 -45 -13 -67 9 -13 13 -33 20 -61 20 -32 0
-42 -4 -46 -20 -4 -14 -14 -20 -35 -20 -83 0 -172 -88 -213 -211 -15 -44 -43
-104 -64 -135 l-37 -54 -1636 0 c-1760 0 -1725 1 -1967 -51 -316 -69 -576
-211 -709 -387 -116 -154 -147 -302 -90 -425 106 -226 493 -415 1019 -499
l144 -23 4000 0 4000 0 285 38 c644 85 1359 202 2034 333 l129 25 30 -28 c47
-44 97 -128 162 -271 l59 -132 163 0 163 0 0 238 c0 231 1 240 21 258 12 10
25 29 30 42 8 20 15 22 91 22 46 0 107 3 137 7 50 6 53 5 47 -14 -9 -27 9
-105 27 -118 8 -5 19 -27 26 -47 25 -76 64 -32 65 72 1 36 -2 77 -7 93 -7 26
-6 27 31 27 39 0 101 33 109 57 7 20 -68 63 -110 63 -32 0 -37 3 -33 18 21 74
17 163 -9 198 -11 16 -15 16 -29 5 -9 -7 -16 -22 -16 -32 0 -11 -7 -19 -15
-19 -24 0 -39 -41 -39 -106 l0 -61 -40 8 c-23 5 -69 8 -103 9 l-63 0 -70 93
-70 94 0 259 0 259 89 17 c82 16 236 66 271 88 22 14 -8 33 -105 69 -185 67
-471 113 -715 115 -185 1 -256 -13 -311 -62 -65 -59 -68 -151 -5 -209 45 -41
90 -53 207 -53 l95 0 22 -39 c28 -49 29 -132 3 -193 -14 -32 -87 -141 -126
-186 -1 -1 -100 22 -221 52 -563 141 -1187 243 -1864 306 -383 35 -502 39
-1375 45 l-860 6 -55 33 c-132 80 -294 152 -479 212 -134 44 -188 58 -368 94
-81 17 -158 32 -170 35 -19 4 -22 13 -25 63 -3 51 -5 57 -26 60 l-24 4 4 169
c2 130 0 169 -9 169 -7 0 -13 11 -13 25 0 18 5 25 20 25 26 0 26 20 0 27 -16
4 -20 16 -23 67 l-3 61 -2 -68 c-2 -60 -5 -70 -22 -74 -17 -5 -20 -14 -20 -60
0 -46 3 -56 20 -60 19 -5 20 -14 20 -144 l0 -139 -24 0 c-17 0 -31 -10 -43
-30 -39 -67 -43 -46 -43 235 0 167 -4 265 -10 265 -6 0 -11 117 -13 318 l-2
317 -3 -317z"/>
</g>
</svg>
