<?xml version="1.0" standalone="no"?>
<!DOCTYPE svg PUBLIC "-//W3C//DTD SVG 20010904//EN"
 "http://www.w3.org/TR/2001/REC-SVG-20010904/DTD/svg10.dtd">
<svg version="1.0" xmlns="http://www.w3.org/2000/svg"
 width="958.000000pt" height="1280.000000pt" viewBox="0 0 958.000000 1280.000000"
 preserveAspectRatio="xMidYMid meet">
<metadata>
Created by potrace 1.15, written by Peter Selinger 2001-2017
</metadata>
<g transform="translate(0.000000,1280.000000) scale(0.100000,-0.100000)"
fill="#11c441" stroke="none">
<path d="M4586 12770 c-44 -53 -47 -121 -5 -173 44 -57 69 -21 69 98 0 113
-16 132 -64 75z"/>
<path d="M4470 12347 c-14 -7 -26 -21 -28 -31 -8 -42 123 -136 191 -136 15 0
36 9 46 19 16 16 18 26 11 52 -12 42 -37 68 -85 90 -47 22 -100 24 -135 6z"/>
<path d="M4597 12032 c-10 -10 -17 -24 -17 -30 0 -20 -50 -25 -122 -12 -38 6
-72 9 -76 6 -9 -10 116 -132 171 -168 74 -47 154 -68 265 -68 107 0 111 11 12
29 -152 29 -231 93 -196 159 8 15 28 40 45 56 17 16 28 33 25 38 -10 16 -90 9
-107 -10z"/>
<path d="M4498 11683 c-32 -8 -19 -21 67 -69 47 -26 83 -49 81 -51 -2 -2 -47
6 -100 18 -54 12 -100 18 -103 15 -16 -15 146 -146 181 -146 39 0 323 191 311
209 -7 12 -405 34 -437 24z"/>
<path d="M5110 11546 c-19 -7 -68 -30 -107 -50 -95 -47 -208 -92 -258 -100
-60 -11 -84 -31 -91 -76 -9 -58 -24 -74 -70 -72 -35 1 -78 19 -160 67 -40 24
-64 15 -64 -26 0 -48 53 -92 149 -124 43 -14 87 -35 97 -46 18 -20 18 -21 -5
-40 -18 -15 -37 -19 -83 -17 -65 3 -63 4 -136 -92 -32 -41 -69 -58 -139 -66
-79 -8 -111 -22 -128 -55 -22 -42 -18 -79 16 -148 24 -48 48 -76 114 -131 102
-85 110 -96 64 -86 -86 18 -135 19 -152 1 -9 -9 -17 -25 -17 -35 0 -50 -137
-75 -276 -51 -82 15 -114 33 -114 66 0 32 -57 78 -138 110 -82 33 -92 25 -59
-48 54 -118 151 -243 224 -288 42 -26 64 -66 52 -97 -5 -12 -6 -29 -3 -37 10
-24 80 -61 194 -100 141 -50 155 -58 230 -134 36 -37 83 -81 105 -98 58 -46
39 -55 -105 -48 -180 9 -279 24 -290 44 -5 10 -36 32 -69 50 -82 43 -336 140
-388 148 -40 5 -43 4 -43 -18 0 -31 32 -84 65 -105 14 -9 47 -21 73 -25 59
-11 96 -49 106 -109 12 -79 19 -84 97 -77 82 7 84 2 36 -69 -65 -95 -89 -144
-91 -186 -2 -39 -5 -43 -37 -51 -42 -12 -289 -2 -350 13 -30 8 -48 19 -54 33
-11 25 -166 107 -203 107 -22 0 -23 -1 -17 -87 6 -77 4 -92 -13 -119 -47 -73
-155 -125 -314 -150 -186 -29 -211 -35 -199 -47 9 -9 118 -14 364 -18 229 -4
362 -10 380 -17 45 -19 88 -14 155 18 75 35 82 36 75 10 -17 -63 -133 -118
-443 -210 -96 -28 -236 -70 -310 -91 -134 -40 -210 -77 -210 -103 0 -20 34
-46 59 -46 13 0 53 14 91 30 79 35 98 37 107 13 4 -10 11 -21 17 -25 33 -23
223 6 313 47 42 19 52 28 55 51 2 15 15 36 31 48 25 19 42 21 145 21 101 0
124 -4 170 -24 34 -16 62 -37 78 -60 36 -53 32 -68 -22 -76 -26 -3 -48 -13
-51 -21 -9 -25 38 -64 97 -80 153 -42 179 -65 187 -168 l5 -62 -163 22 c-90
12 -192 31 -226 42 -88 30 -171 49 -306 72 -133 22 -331 27 -372 8 -24 -11
-25 -15 -25 -97 0 -47 4 -90 8 -96 4 -5 36 -10 72 -11 52 0 85 -9 168 -43 103
-42 195 -65 307 -77 52 -5 63 -11 93 -42 l33 -37 147 -7 c195 -9 222 -14 222
-42 0 -41 -13 -48 -66 -39 -67 11 -85 7 -114 -26 -42 -45 -137 -48 -487 -13
-68 7 -68 7 -66 37 4 51 -29 72 -227 141 -131 45 -326 140 -495 240 -291 172
-283 168 -238 101 24 -36 33 -58 29 -74 -19 -76 -20 -72 10 -78 58 -13 64 -17
70 -42 4 -14 -1 -52 -10 -84 -21 -76 -20 -92 4 -114 27 -24 94 -16 235 28 61
20 113 32 118 28 4 -4 0 -27 -8 -51 -19 -54 -9 -92 40 -150 20 -24 32 -47 28
-56 -19 -50 -174 -66 -366 -40 -118 17 -156 13 -158 -17 -6 -71 24 -146 66
-165 14 -7 43 -12 63 -12 83 -1 158 -61 226 -182 67 -120 80 -122 237 -28 104
63 134 72 101 30 -48 -62 -112 -165 -112 -182 0 -31 22 -20 104 47 43 36 83
64 90 62 6 -2 14 -26 18 -53 8 -55 42 -94 84 -94 34 0 42 -27 15 -53 -20 -20
-32 -22 -134 -23 -140 0 -178 -7 -286 -52 -71 -29 -98 -36 -156 -36 -62 0 -89
8 -235 64 -146 56 -175 64 -251 68 -78 4 -89 2 -108 -17 -27 -27 -27 -67 1
-82 11 -6 50 -15 86 -19 72 -9 89 -23 66 -58 -13 -20 -13 -23 1 -29 9 -3 47
-1 85 6 91 15 155 14 168 -2 17 -20 -12 -55 -64 -77 -24 -11 -44 -24 -44 -30
0 -13 32 -44 108 -108 33 -28 52 -51 52 -65 0 -12 -22 -43 -53 -75 -42 -43
-49 -54 -37 -62 37 -23 161 2 246 50 63 36 84 38 84 7 0 -30 -52 -111 -85
-133 -46 -30 -114 -14 -372 89 -246 98 -315 121 -395 132 -42 6 -48 5 -63 -19
-44 -67 0 -193 89 -253 40 -27 58 -33 102 -33 29 0 56 -4 59 -10 3 -5 -23 -24
-60 -42 -36 -18 -65 -35 -65 -39 0 -12 61 -19 167 -19 l104 0 -3 -32 c-6 -61
-85 -77 -368 -78 -203 0 -326 -17 -438 -60 -112 -42 -160 -53 -209 -45 -40 6
-44 4 -55 -20 -17 -37 14 -93 64 -120 21 -11 38 -23 38 -26 0 -3 -44 -10 -97
-17 -115 -13 -146 -31 -151 -85 -5 -54 17 -61 157 -53 64 3 127 9 141 11 25 5
25 5 3 -6 -53 -28 -13 -80 158 -212 165 -126 238 -239 172 -264 -23 -9 -85 15
-347 134 -259 118 -383 163 -450 163 -91 0 -68 -46 64 -128 73 -46 74 -47 43
-50 -45 -4 -73 -43 -73 -99 0 -57 14 -61 81 -27 65 33 125 37 145 10 16 -23 7
-45 -43 -98 -20 -20 -33 -40 -29 -46 3 -5 34 -12 69 -15 78 -7 111 -22 126
-53 13 -29 36 -39 111 -49 64 -8 100 -28 100 -54 0 -22 -31 -37 -96 -47 -65
-9 -113 -35 -146 -77 -37 -48 -109 -71 -213 -71 -87 1 -123 14 -183 65 -40 36
-86 39 -103 7 -15 -28 -5 -106 20 -155 27 -55 58 -66 156 -58 73 6 83 5 114
-17 19 -13 51 -51 71 -86 41 -70 100 -136 144 -159 46 -24 114 -19 169 12 55
31 61 21 27 -45 -35 -69 -32 -72 68 -64 106 7 157 -9 283 -91 108 -71 227
-114 345 -125 120 -12 164 -29 146 -57 -34 -53 -322 -100 -561 -91 -116 4
-133 7 -197 36 -101 46 -351 100 -584 127 -151 17 -246 19 -254 6 -8 -12 87
-79 251 -179 78 -48 141 -88 140 -89 -1 -1 -88 -16 -192 -34 -105 -18 -193
-35 -198 -39 -4 -3 52 -23 124 -43 193 -55 281 -105 263 -150 -9 -25 -55 -38
-159 -47 -118 -9 -155 -23 -155 -57 0 -55 99 -54 275 2 120 38 197 45 233 19
12 -8 22 -20 22 -25 0 -19 -74 -41 -215 -65 -174 -29 -240 -49 -272 -80 -35
-35 -26 -68 43 -170 34 -52 58 -99 62 -126 l8 -43 125 3 125 3 32 -30 c27 -27
39 -31 85 -31 61 0 77 -11 77 -56 0 -38 9 -45 70 -59 84 -19 61 -74 -57 -132
-72 -35 -83 -38 -182 -41 -187 -6 -362 54 -575 197 -197 133 -291 161 -336
103 -60 -75 38 -293 166 -368 77 -45 70 -59 -72 -135 -51 -28 -96 -54 -99 -59
-11 -18 24 -24 221 -35 248 -15 278 -26 369 -129 72 -81 92 -95 169 -113 43
-10 71 -23 94 -46 31 -30 38 -32 95 -30 67 1 134 24 144 49 3 10 -8 29 -31 53
-54 55 -49 61 48 61 64 0 88 -4 100 -16 21 -21 20 -30 -9 -92 -44 -94 -81
-139 -131 -158 -43 -16 -59 -17 -203 -5 -180 14 -271 6 -271 -24 0 -25 140
-59 322 -76 103 -10 139 -10 191 0 72 14 87 10 125 -34 21 -24 28 -26 68 -20
25 3 70 15 102 26 108 37 220 45 382 25 80 -10 287 -23 460 -31 173 -7 327
-18 343 -24 61 -24 26 -41 -174 -81 -165 -34 -259 -65 -330 -111 -63 -40 -139
-65 -224 -74 -94 -9 -137 -28 -133 -57 5 -32 45 -39 195 -31 l131 6 29 -30
c79 -85 145 -38 147 104 1 40 3 73 5 73 3 0 39 -33 80 -74 103 -100 145 -120
246 -121 105 -2 105 -2 105 -25 0 -19 -63 -70 -87 -70 -7 0 -13 -5 -13 -11 0
-6 8 -8 18 -5 9 2 56 7 103 11 103 8 119 -2 98 -59 -7 -20 -10 -38 -7 -42 4
-3 42 6 86 20 144 48 225 45 238 -11 17 -72 66 -96 148 -73 49 13 83 41 116
94 38 63 63 70 266 76 160 4 184 7 203 24 18 16 50 21 243 32 123 7 256 20
296 28 145 31 167 20 196 -101 70 -292 80 -686 31 -1181 l-5 -54 247 4 c137 2
256 8 266 12 31 14 29 51 -7 188 -41 153 -104 466 -137 678 -17 104 -23 190
-24 302 l0 157 28 28 c27 27 30 28 135 27 59 -1 150 -9 202 -18 88 -15 96 -15
130 2 30 14 38 26 53 77 36 120 40 130 55 148 35 40 82 8 169 -116 80 -114
127 -157 169 -157 18 0 72 -9 119 -20 130 -30 239 -23 328 21 65 34 66 33
-170 79 -108 21 -180 47 -202 73 -19 24 -7 34 54 42 30 3 57 11 61 16 3 5 -4
25 -16 44 -18 29 -19 36 -7 40 23 10 118 -32 238 -103 188 -112 238 -125 364
-92 43 11 83 24 88 29 4 4 -38 10 -95 13 -108 6 -178 26 -178 52 0 15 16 20
117 31 45 5 247 -3 473 -19 63 -5 64 -5 20 6 -25 6 -103 23 -175 38 -144 31
-230 60 -270 92 -24 19 -25 22 -11 37 13 13 45 16 175 18 117 2 184 8 257 24
84 18 117 20 216 15 129 -8 126 -9 143 59 8 32 18 44 50 60 37 18 68 20 412
25 264 3 375 8 384 17 9 9 1 18 -30 38 -67 42 -78 107 -25 141 21 15 33 15 74
6 71 -17 134 7 259 98 82 59 142 90 176 90 28 0 40 19 50 83 9 54 72 120 154
159 60 29 76 33 169 35 119 2 167 20 267 96 76 58 215 191 215 206 0 15 -9 14
-136 -9 -166 -31 -580 -92 -661 -97 -82 -6 -129 6 -189 49 -77 55 -112 55
-324 1 -136 -34 -336 -39 -413 -10 -26 10 -45 23 -41 28 3 5 71 9 152 9 198 0
271 21 407 114 37 25 77 47 89 48 44 3 82 -5 118 -23 54 -27 181 -29 235 -3
34 17 38 23 35 52 -2 29 3 36 45 62 26 17 111 55 190 86 119 47 143 59 138 74
-4 12 22 42 94 109 125 115 171 198 145 265 -9 24 -22 20 -73 -23 -142 -118
-281 -162 -510 -162 -179 0 -369 41 -466 101 -40 25 -48 42 -33 75 21 46 72
45 162 -1 38 -20 69 -27 140 -31 146 -8 346 35 346 75 0 13 -16 29 -69 70 -21
16 -23 23 -17 65 13 88 140 249 215 272 39 12 85 128 120 305 17 85 31 156 31
157 0 2 -87 -55 -192 -126 -303 -202 -501 -304 -717 -366 -198 -57 -245 -56
-276 5 -26 50 -15 63 48 54 69 -10 112 -7 148 12 25 13 30 20 27 47 -3 29 -39
65 -81 80 -36 13 13 13 135 -1 127 -14 139 -14 163 2 21 14 25 24 25 64 0 56
26 112 60 130 33 17 96 10 193 -23 43 -14 83 -25 89 -23 5 2 -13 23 -41 46
-28 24 -58 57 -67 74 -15 30 -15 32 2 45 12 9 31 12 54 9 117 -20 115 -20 149
13 30 29 35 31 85 25 62 -7 120 14 178 65 43 37 78 104 71 132 -3 11 -31 42
-63 70 -82 71 -115 135 -115 224 0 90 23 136 99 194 96 73 99 121 6 121 -68 0
-156 -32 -315 -114 -136 -70 -227 -127 -505 -316 -175 -118 -318 -190 -381
-190 -53 0 -79 21 -79 65 0 44 24 64 70 58 68 -9 120 43 97 95 -7 14 -35 35
-71 51 -134 61 -125 131 14 110 60 -9 131 5 210 42 103 48 158 97 145 131 -3
7 -25 24 -50 37 -47 25 -67 57 -44 72 24 15 76 10 156 -16 73 -23 123 -31 123
-20 0 2 -7 23 -16 45 -15 37 -15 42 1 66 9 14 31 32 48 39 36 15 29 20 -47 30
-52 7 -106 48 -106 79 0 35 37 56 97 54 72 -2 115 19 137 67 25 52 18 97 -17
109 -48 17 -130 -9 -326 -103 -102 -49 -215 -97 -250 -106 -36 -9 -121 -42
-190 -72 -69 -31 -155 -67 -190 -80 -85 -32 -256 -73 -304 -73 -35 0 -38 2
-35 27 3 23 -2 29 -32 40 -19 6 -57 12 -83 12 -67 1 -58 16 43 72 105 58 156
100 178 147 23 50 65 68 204 91 64 10 126 24 139 31 37 19 59 42 59 60 0 41
61 73 180 96 94 18 125 37 109 65 -13 26 -8 31 44 45 43 11 44 13 31 65 -5 24
-3 28 28 34 55 12 82 31 106 73 44 79 23 160 -51 198 -42 22 -23 30 89 36 101
6 147 22 152 55 5 35 -30 46 -122 40 -93 -6 -160 -29 -255 -86 -36 -22 -104
-58 -151 -80 -255 -119 -900 -351 -1055 -380 -48 -9 -50 -8 -82 26 -41 43 -44
84 -9 116 27 26 33 29 168 91 116 53 197 124 236 204 33 71 79 101 169 113 37
4 75 8 84 9 8 0 23 6 32 13 17 11 17 15 2 45 -42 84 68 192 197 192 74 0 57
24 -64 90 -43 23 -80 45 -83 50 -2 4 41 7 98 6 115 -1 136 6 201 71 45 45 96
129 96 159 0 20 -3 21 -40 13 -86 -19 -324 -123 -416 -181 -95 -60 -184 -96
-337 -137 -324 -89 -659 -140 -730 -112 -24 9 -26 13 -17 32 16 29 -9 54 -81
80 -67 25 -89 43 -71 61 21 21 13 48 -28 92 -53 58 -53 76 3 76 66 0 173 27
226 55 81 45 87 95 16 144 -36 24 -159 67 -225 77 -84 14 -47 24 84 24 99 0
219 11 448 40 307 39 402 58 442 86 18 12 18 14 2 20 -10 4 -72 4 -139 0 -326
-17 -457 -19 -472 -6 -39 32 3 63 99 74 74 8 132 33 174 75 41 41 41 73 2 101
-16 12 -30 27 -30 34 0 7 25 36 55 65 71 68 87 99 79 151 -8 50 8 71 74 95 91
33 102 38 102 46 0 5 -27 22 -60 39 -33 17 -60 35 -60 40 0 6 27 10 59 10 63
0 111 13 111 29 0 16 -121 141 -151 157 -64 33 -110 11 -153 -74 -13 -26 -32
-55 -43 -64 -26 -24 -87 -48 -120 -48 -39 0 -162 -56 -263 -120 -47 -29 -105
-62 -129 -73 -41 -18 -45 -18 -56 -3 -16 22 -70 21 -181 -4 -49 -11 -125 -20
-169 -20 -164 0 -397 88 -366 138 11 18 73 31 141 32 127 1 238 45 337 134 74
65 88 73 129 74 46 1 110 20 184 54 l65 31 -74 12 c-61 10 -78 17 -99 40 -21
25 -24 36 -19 81 8 74 38 125 133 224 46 48 84 91 84 97 0 5 -11 15 -25 21
-31 14 -33 48 -5 101 10 21 16 41 13 45 -10 9 -153 -70 -374 -209 -280 -176
-355 -220 -483 -281 -242 -115 -390 -130 -437 -42 -11 21 -10 21 42 15 30 -3
70 -9 90 -13 31 -5 40 -2 67 24 31 30 76 50 166 73 67 17 114 60 122 111 4 22
17 52 30 67 59 70 236 127 353 114 59 -7 62 2 14 40 -63 50 -51 78 64 163 140
102 184 155 163 195 -14 25 2 49 34 49 31 0 66 11 66 20 0 16 -68 50 -99 50
-46 0 -118 -30 -237 -100 -237 -139 -538 -246 -801 -285 -93 -14 -119 -14
-175 2 -97 26 238 292 400 318 64 10 208 111 330 230 56 55 102 106 102 113 0
20 -42 14 -156 -23 -285 -93 -549 -146 -790 -161 -95 -6 -111 -5 -123 10 -16
20 -5 69 29 125 25 39 38 39 140 -4 54 -23 84 -29 175 -33 98 -4 113 -2 134
15 28 23 30 62 7 171 -20 92 -20 95 2 122 17 20 31 23 148 30 179 11 294 56
294 115 0 24 -35 59 -71 70 -36 12 -19 24 41 31 59 7 80 17 60 29 -18 11 -132
-16 -302 -71 -92 -30 -185 -54 -207 -54 -67 0 -76 38 -24 108 28 38 63 58 118
67 55 10 83 30 87 62 4 32 51 68 112 84 61 16 124 56 141 89 20 38 20 109 0
116 -16 7 -88 -26 -240 -111 -131 -72 -212 -102 -322 -120 -50 -8 -155 -35
-234 -60 -143 -45 -242 -64 -275 -51 -15 6 -15 9 7 32 13 14 41 35 62 46 48
24 120 90 146 132 10 17 28 66 40 109 25 92 50 143 92 192 28 31 36 35 81 35
53 0 54 1 137 100 40 48 79 70 177 99 39 11 79 30 90 42 19 21 18 21 -9 45
-16 13 -38 24 -51 24 -12 0 -71 -25 -132 -55 -118 -60 -297 -133 -476 -194
-224 -77 -238 -77 -238 0 0 64 22 107 58 114 58 13 68 35 47 109 l-8 29 39 -6
c25 -4 57 0 90 12 115 39 264 155 264 205 0 23 -4 26 -37 25 -21 0 -54 -6 -73
-13z m-766 -2192 c19 -18 21 -55 4 -72 -7 -7 -33 -12 -60 -12 -45 0 -325 53
-336 64 -15 15 124 33 270 35 85 1 110 -2 122 -15z m916 -764 c81 -1 47 -59
-39 -68 -37 -3 -58 0 -76 12 -33 22 -32 44 3 52 15 3 32 7 37 9 6 2 19 2 30 0
11 -3 31 -5 45 -5z m1130 -489 c0 -12 -183 -84 -292 -115 -109 -31 -247 -51
-284 -41 -25 7 -16 10 59 26 97 19 136 39 133 66 -1 13 13 23 52 36 82 27 332
48 332 28z m-3515 -371 c14 -13 25 -31 25 -41 0 -38 -122 -82 -217 -77 -49 3
-58 6 -61 23 -3 23 59 102 92 116 12 5 47 7 78 6 44 -3 64 -9 83 -27z m259
-100 c15 -5 31 -21 38 -35 17 -37 -7 -57 -74 -63 -102 -8 -138 31 -77 82 32
27 70 33 113 16z m466 -65 c10 -13 9 -19 -6 -37 -39 -43 -138 -65 -150 -33 -8
21 14 45 61 66 49 23 79 24 95 4z m2849 -205 c40 -21 31 -80 -11 -80 -27 0
-78 47 -78 72 0 14 8 18 36 18 19 0 43 -4 53 -10z m-2969 -305 c33 -17 54 -50
46 -71 -8 -22 -72 -18 -96 6 -23 23 -24 33 -10 61 13 23 22 24 60 4z m-389 -5
c47 -13 89 -52 89 -83 0 -24 -37 -65 -77 -86 -31 -16 -89 -14 -123 4 -78 40
-62 138 26 165 39 11 44 11 85 0z m-722 -756 c16 -15 -119 -72 -191 -81 -52
-6 -78 6 -78 38 0 23 31 40 94 50 48 7 166 3 175 -7z m4436 -48 c52 -22 46
-69 -11 -85 -44 -12 -94 10 -94 42 0 27 14 42 45 50 11 2 21 5 23 6 1 0 18 -6
37 -13z m-5194 -225 c20 -21 29 -39 29 -62 0 -57 21 -69 124 -69 134 -1 183
-16 199 -63 1 -5 16 -8 32 -7 88 7 111 4 142 -19 28 -21 39 -23 110 -19 84 5
162 33 226 82 40 30 52 32 61 9 11 -28 -25 -66 -93 -99 -79 -38 -98 -60 -74
-86 22 -24 74 -23 125 3 53 27 138 27 201 0 58 -25 60 -41 5 -41 -61 0 -148
-12 -148 -19 0 -4 25 -19 56 -34 30 -15 52 -32 49 -37 -13 -22 -187 -9 -525
39 -192 27 -246 37 -365 68 -187 48 -375 136 -448 209 -104 104 -33 170 186
173 74 1 80 -1 108 -28z m642 -1052 c56 -15 35 -29 -46 -29 -83 0 -117 13 -77
29 33 13 77 13 123 0z m6773 -33 c64 -30 129 -87 143 -126 9 -27 7 -31 -17
-44 -66 -34 -304 -46 -438 -23 -68 12 -124 38 -124 57 0 17 44 40 136 70 50
17 111 44 135 60 55 36 98 37 165 6z m-7756 -176 c41 -6 136 -31 210 -57 135
-47 135 -47 259 -46 139 2 176 -9 187 -54 9 -36 -4 -54 -62 -83 -59 -30 -165
-38 -257 -20 -72 14 -362 91 -457 121 -109 35 -181 71 -178 87 5 23 101 50
213 60 6 1 44 -3 85 -8z m479 -466 c17 -14 31 -34 31 -45 0 -37 -77 -33 -109
5 -11 13 -11 22 -3 41 15 32 42 32 81 -1z m-334 -713 c3 -5 -11 -22 -31 -38
-30 -23 -47 -28 -93 -28 -80 0 -76 23 9 52 70 24 106 28 115 14z m7140 -202
c34 -54 -386 -136 -515 -100 -32 9 -37 41 -11 65 15 14 51 21 153 31 173 16
365 18 373 4z m-6807 -88 c48 -30 -274 -151 -402 -151 -33 0 -70 9 -104 25
-77 36 -117 33 -198 -15 -81 -47 -124 -51 -205 -18 -58 23 -79 36 -79 48 0 35
451 123 543 106 20 -4 55 -22 77 -41 23 -19 51 -35 61 -35 11 0 47 14 80 30
94 48 196 71 227 51z m486 -167 c43 -42 -54 -96 -115 -63 -17 9 -18 13 -7 26
12 15 83 52 100 53 4 0 14 -7 22 -16z m-354 -30 c17 -4 34 -13 37 -21 8 -20
-36 -63 -64 -63 -34 0 -176 67 -168 80 7 11 144 14 195 4z m5713 -236 c34 -36
31 -52 -12 -56 -41 -4 -81 21 -81 51 0 54 45 57 93 5z m-6067 -66 c31 -9 56
-21 55 -27 -1 -12 -91 -19 -146 -10 -49 7 -109 41 -99 56 9 15 114 4 190 -19z
m6022 -69 c51 -32 3 -73 -86 -73 -56 0 -112 22 -112 44 0 49 136 69 198 29z
m-4963 -50 c-39 -91 -36 -118 13 -129 74 -16 105 -43 66 -58 -74 -28 -898 -33
-1074 -6 -86 13 -134 37 -138 68 -4 27 18 37 107 47 54 6 69 12 97 40 42 42
98 50 278 41 165 -8 315 -38 382 -77 72 -41 100 -38 172 16 32 24 65 51 72 60
17 21 34 19 25 -2z m1895 -62 c0 -16 -51 -50 -90 -61 -57 -15 -125 4 -89 25
50 32 179 57 179 36z m-1089 -81 c24 -13 25 -42 2 -62 -26 -23 -96 -32 -138
-18 -38 13 -41 18 -22 42 31 40 115 60 158 38z m-1731 -287 c0 -43 -147 -183
-191 -183 -29 0 -24 40 10 88 57 77 181 143 181 95z m1815 -650 c-20 -79 -18
-99 10 -122 15 -11 34 -21 41 -21 30 0 12 -18 -23 -24 -84 -14 -518 -19 -622
-7 -110 13 -242 49 -248 67 -2 6 22 17 55 24 77 16 136 49 140 78 4 29 39 29
93 2 92 -48 196 -46 399 5 52 13 110 24 129 24 32 1 33 0 26 -26z"/>
<path d="M4015 11208 c-120 -21 -160 -36 -160 -58 0 -41 201 -34 304 10 55 24
70 45 41 60 -25 13 -53 11 -185 -12z"/>
<path d="M2706 9757 c-26 -19 -17 -50 38 -124 105 -143 240 -121 144 23 -54
80 -143 130 -182 101z"/>
<path d="M1482 1409 c-42 -16 -12 -29 69 -29 85 0 102 13 42 29 -46 13 -80 13
-111 0z"/>
</g>
</svg>
